<svg version="1" xmlns="http://www.w3.org/2000/svg" width="664" height="664" viewBox="0 0 498.000000 498.000000"><path d="M0 249v249h498V0H0v249zM347.1 39.5c16.4 2.6 19.8 3.6 27.9 7.6 10.7 5.4 22.7 16.6 26.3 24.6 5.4 12 5.7 26.8 1.1 45.1-2.9 11.8-6.4 18.2-13.9 25.7-10.3 10.3-24.8 17.1-42.1 19.6l-7.4 1.1v36.2l.1 36.1 16.9 14.9c9.4 8.1 16.8 15.2 16.5 15.6-.3.5-7.9 6.6-17 13.6L339 292.4v47.1c0 25.8-.3 48.7-.6 50.8-.4 2.3-.3 3.7.4 3.7 1.7 0 12.9-9.6 21-17.9 13-13.5 25.1-30 35.1-48.4 2.4-4.2 4.5-7.7 4.8-7.7.9 0-.8 20.7-2.3 30-2 11.9-4.9 21.6-10.4 35.5-9 22.8-15.4 33.1-28.4 46-30.7 30.3-75.2 45.6-121.2 41.6-18.9-1.6-31.3-5.5-53.6-16.6-31.7-15.8-56.3-40.8-73.1-74-7.8-15.6-13.7-37.6-15.7-59-6-61.4 29.3-124.3 88.9-158.4 15.3-8.7 26.1-12.9 35.2-13.6 6.2-.5 7.1-.4 5.5.7-1.1.7-5.9 3.9-10.7 7.1-10.9 7.1-23.1 18.5-30.7 28.6-5.5 7.3-15.9 25.8-14.9 26.7.2.2 14.7-5.8 32.3-13.5 50.5-21.9 79.2-34.1 80.3-34.1 1.2 0 1.6 123.6.4 147.4-.6 13.2-.7 13.8-3 14.7-3.5 1.3-78 38.6-82.9 41.5-4.1 2.4-4.3 2.7-2.9 4.8 2 3.1 16.2 15.2 23.2 19.8 14.3 9.5 27.6 14 46.6 15.9 26.8 2.6 49.6-1.7 66.8-12.6l5.4-3.4.2-32.3c.2-17.8 0-40.9-.3-51.4l-.6-19.2-7.7-5.3c-4.2-2.9-12.7-8.8-18.8-13.2l-11.3-8 18.9-15 18.9-15 .7-17.6c.7-15.2 0-54-.9-54.9-.2-.2-5-1.4-10.7-2.6-5.7-1.3-20.3-5.1-32.4-8.4-24.6-6.7-86.1-21.7-107.5-26.2-21.9-4.7-30.8-3.9-38.5 3.1-10.5 9.7-12.2 26.6-4.1 40.2l3.4 5.5-4.6-1.3c-14.6-4.4-27.1-21.2-29.1-39.1-1.9-16.3 2.2-34.6 10.7-47.5C134 66.8 162 51 184.6 51c15.6 0 43.3 6.5 83.5 19.5 55.4 18.1 66.5 20.5 78 17.2 11.8-3.5 20.9-12.3 20.9-20.4 0-3.8-.6-5-4.7-9.4-7.5-8.1-16.2-12.1-32.1-14.9-7.6-1.4-8.1-2.2-2.2-3.8 5-1.5 8.5-1.4 19.1.3z"/><path d="M189.5 213.1l-22 11-3.2 9.2c-4.9 14.1-7.3 27.4-7.9 43.7-.6 13.3-.4 15.4 2.1 26.4 4.7 20.8 12.1 39.8 22.2 56.7 3.4 5.7 5.2 7.9 6.4 7.6.9-.2 6.8-2.6 13.2-5.3l11.7-4.9v-77.8c0-42.7-.1-77.7-.2-77.6-.2 0-10.2 5-22.3 11z"/></svg>